# xmcd CD database file
#
# Track frame offsets:
#	150
#	21126
#	39885
#	66757
#	84259
#	100464
#	126525
#	137697
#	159928
#	181814
#	208556
#	229199
#	244306
#	267887
#	286299
#	311355
#	331625
#
# Disc length: 4677 seconds
#
# Revision: 0
# Processed by: cddbd v1.5.1PL2 Copyright (c) Steve Scherf et al.
# Submitted via: CDex 1.60beta1
#
DISCID=e1124311
DTITLE=Blind Foundation - Jazz
DYEAR=2006
DGENRE=Jazz
TTITLE0=Dream a little dream
TTITLE1=My Baby just cares
TTITLE2=it might as well be spring
TTITLE3=Don't know why
TTITLE4=Fly me to the moon
TTITLE5=Cabaret
TTITLE6=Blue Bossa
TTITLE7=As time goes by
TTITLE8=Feel like makin' love
TTITLE9=Misty
TTITLE10=Moondance
TTITLE11=Moonriver
TTITLE12=Night and Day
TTITLE13=Cheek to cheek
TTITLE14=Smooth operator
TTITLE15=Gigolo
TTITLE16=Girl from Ipanema
EXTD=YEAR: 2006
EXTT0=
EXTT1=
EXTT2=
EXTT3=
EXTT4=
EXTT5=
EXTT6=
EXTT7=
EXTT8=
EXTT9=
EXTT10=
EXTT11=
EXTT12=
EXTT13=
EXTT14=
EXTT15=
EXTT16=
PLAYORDER=
